<svg width="154" height="111" viewBox="0 0 154 111" fill="none" xmlns="http://www.w3.org/2000/svg">
<path d="M77.25 3.25C37.2375 3.25 4.5 9.53719 4.5 14.028V17.0818V23.0097V81.75H150V23.0097V17.0818V14.028C150 9.71682 117.263 3.25 77.25 3.25Z" fill="#F9FFF1" stroke="#458352" stroke-width="3" stroke-miterlimit="10" stroke-linecap="round" stroke-linejoin="round"/>
<path d="M140 21.6029C140 18.0529 111.762 13.25 77.25 13.25C42.7375 13.25 14.5 18.0529 14.5 21.6029V71.75H140V21.6029Z" stroke="#458352" stroke-width="3" stroke-miterlimit="10" stroke-linecap="round" stroke-linejoin="round"/>
<path d="M150 81.75H4.5V101.25H150V81.75Z" fill="#F9FFF1" stroke="#458352" stroke-width="3" stroke-miterlimit="10" stroke-linecap="round" stroke-linejoin="round"/>
<path d="M152 101.25H2.5V109.25H152V101.25Z" fill="#F9FFF1" stroke="#458352" stroke-width="3" stroke-miterlimit="10" stroke-linecap="round" stroke-linejoin="round"/>
<path d="M68.9 30.5L66.6 56.75H58.5L60.8 30.5H68.9Z" fill="#458352"/>
<path d="M94.1281 39.25L93.3281 48C93.1281 50.4 91.8448 52.4667 89.4781 54.2C87.1115 55.9 84.3448 56.75 81.1781 56.75C78.0448 56.75 75.4448 55.9 73.3781 54.2C71.3115 52.4667 70.3781 50.4 70.5781 48L71.3781 39.25C71.5781 36.85 72.8615 34.8 75.2281 33.1C77.5948 31.3667 80.3448 30.5 83.4781 30.5C86.6448 30.5 89.2615 31.3667 91.3281 33.1C93.3948 34.8 94.3281 36.85 94.1281 39.25ZM85.9781 39.25C86.0448 38.55 85.7781 37.9667 85.1781 37.5C84.5781 37 83.8281 36.75 82.9281 36.75C82.0615 36.75 81.2781 37 80.5781 37.5C79.9115 37.9667 79.5448 38.55 79.4781 39.25L78.7281 48C78.6615 48.7 78.9281 49.3 79.5281 49.8C80.1281 50.2667 80.8615 50.5 81.7281 50.5C82.6281 50.5 83.4115 50.2667 84.0781 49.8C84.7781 49.3 85.1615 48.7 85.2281 48L85.9781 39.25Z" fill="#458352"/>
</svg>
