<svg width="329" height="116" viewBox="0 0 329 116" fill="none" xmlns="http://www.w3.org/2000/svg">
<path d="M164.5 5C77.875 5 7 11.3272 7 15.8467V18.9199V24.8856V84H322V24.8856V18.9199V15.8467C322 11.508 251.125 5 164.5 5Z" fill="#F9FFF1" stroke="#458352" stroke-width="3" stroke-miterlimit="10" stroke-linecap="round" stroke-linejoin="round"/>
<path d="M313 23.4242C313 19.8439 246.625 15 165.5 15C84.375 15 18 19.8439 18 23.4242V74H313V23.4242Z" stroke="#458352" stroke-width="3" stroke-miterlimit="10" stroke-linecap="round" stroke-linejoin="round"/>
<path d="M322 84H7V103H322V84Z" fill="#F9FFF1" stroke="#458352" stroke-width="3" stroke-miterlimit="10" stroke-linecap="round" stroke-linejoin="round"/>
<path d="M326 103H3V111H326V103Z" fill="#F9FFF1" stroke="#458352" stroke-width="3" stroke-miterlimit="10" stroke-linecap="round" stroke-linejoin="round"/>
<path d="M159.44 29.3403V57.3803C159.44 59.9403 159.92 60.5403 162.96 60.5403V61.5003H151.56V60.5403C154.84 60.5403 155.4 59.9403 155.4 57.3803V35.1803C155.4 32.3403 155.28 31.9003 151.52 33.9003L151 32.9403L156 30.3403L158.88 28.7803L159.44 29.3403Z" fill="#458352"/>
<path d="M173.424 29.3403V57.3803C173.424 59.9403 173.904 60.5403 176.944 60.5403V61.5003H165.544V60.5403C168.824 60.5403 169.384 59.9403 169.384 57.3803V35.1803C169.384 32.3403 169.264 31.9003 165.504 33.9003L164.984 32.9403L169.984 30.3403L172.864 28.7803L173.424 29.3403Z" fill="#458352"/>
</svg>
