<svg width="154" height="172" viewBox="0 0 154 172" fill="none" xmlns="http://www.w3.org/2000/svg">
<path d="M77.25 2.5C37.2375 2.5 4.5 13.6327 4.5 21.5847V26.992V37.4886V141.5H150V37.4886V26.992V21.5847C150 13.9508 117.263 2.5 77.25 2.5Z" fill="#F9FFF1" stroke="#458352" stroke-width="3" stroke-miterlimit="10" stroke-linecap="round" stroke-linejoin="round"/>
<path d="M140 29.4913C140 22.27 111.762 12.5 77.25 12.5C42.7375 12.5 14.5 22.27 14.5 29.4913V131.5H140V29.4913Z" stroke="#458352" stroke-width="3" stroke-miterlimit="10" stroke-linecap="round" stroke-linejoin="round"/>
<path d="M150 141.5H4.5V161H150V141.5Z" fill="#F9FFF1" stroke="#458352" stroke-width="3" stroke-miterlimit="10" stroke-linecap="round" stroke-linejoin="round"/>
<path d="M152 161H2.5V169H152V161Z" fill="#F9FFF1" stroke="#458352" stroke-width="3" stroke-miterlimit="10" stroke-linecap="round" stroke-linejoin="round"/>
<path d="M55.8213 92.2197H52.208C52.0127 92.2197 51.8906 92.1139 51.8418 91.9023V91.8291C51.8418 91.7803 51.8581 91.7233 51.8906 91.6582C52.4928 90.5514 53.7542 88.2972 55.6748 84.8955C57.5954 81.4938 59.7438 77.7747 62.1201 73.7383C64.8708 69.0833 67.2878 65.1934 69.3711 62.0684C70.5592 60.2943 71.4788 58.8457 72.1299 57.7227C71.137 58.4714 69.3223 59.9932 66.6855 62.2881C64.3581 64.29 61.2656 67.1058 57.4082 70.7354C57.3268 70.8005 57.2454 70.833 57.1641 70.833C57.0664 70.833 56.9769 70.7923 56.8955 70.7109C56.8304 70.6458 56.7979 70.5645 56.7979 70.4668C56.7979 70.3691 56.8385 70.2796 56.9199 70.1982C60.7936 66.585 63.8942 63.7692 66.2217 61.751C70.2581 58.2679 72.431 56.4694 72.7402 56.3555C72.7891 56.3229 72.8379 56.3066 72.8867 56.3066C72.9193 56.2904 72.9437 56.2822 72.96 56.2822C73.0088 56.2497 73.0658 56.2334 73.1309 56.2334L73.2773 56.2578C73.3424 56.2741 73.3913 56.3148 73.4238 56.3799C73.4727 56.445 73.4971 56.5101 73.4971 56.5752L73.4727 56.7217C71.8613 60.7907 69.5094 65.9421 66.417 72.1758C64.236 76.6354 62.1771 80.7288 60.2402 84.4561C58.3197 88.167 56.9606 90.6979 56.1631 92.0488C56.0654 92.1628 55.9515 92.2197 55.8213 92.2197Z" fill="#458352"/>
<path d="M91.0508 92.7324C90.0254 92.7324 89 92.5778 87.9746 92.2686C86.9655 91.9756 85.9482 91.6338 84.9229 91.2432C83.4255 90.6247 81.8874 90.1689 80.3086 89.876C79.2832 89.7132 78.3392 89.6318 77.4766 89.6318C76.4674 89.6318 75.5641 89.7214 74.7666 89.9004C73.0251 90.3073 71.8125 90.9502 71.1289 91.8291C70.9499 92.0081 70.7871 92.0977 70.6406 92.0977C70.5267 92.0977 70.429 92.057 70.3477 91.9756C70.2826 91.8942 70.25 91.7966 70.25 91.6826L70.2988 91.4629C70.5592 90.8118 70.8278 90.1934 71.1045 89.6074C71.2835 89.1354 71.5033 88.6797 71.7637 88.2402C72.61 86.6615 73.7493 85.1885 75.1816 83.8213C77.3464 81.738 81.2526 79.2803 86.9004 76.4482C89.3581 75.1462 91.3844 73.7139 92.9795 72.1514C94.5745 70.5726 95.7383 68.9775 96.4707 67.3662C97.1217 65.9176 97.4473 64.5586 97.4473 63.2891L97.4229 62.6543C97.2926 61.222 96.7474 60.0176 95.7871 59.041C94.6478 57.8854 92.9388 57.2181 90.6602 57.0391L89.8301 57.0146C88.4629 57.0146 87.2747 57.2262 86.2656 57.6494C85.2728 58.0563 84.4427 58.6016 83.7754 59.2852C83.1081 59.9688 82.5872 60.7256 82.2129 61.5557C81.7734 62.5811 81.5212 63.6146 81.4561 64.6562L81.4316 65.3154C81.4316 66.0804 81.5293 66.7803 81.7246 67.415C81.9199 68.001 82.1722 68.473 82.4814 68.8311C82.807 69.1891 83.1895 69.3682 83.6289 69.3682H83.751C83.8324 69.3682 83.9056 69.4007 83.9707 69.4658C84.0358 69.5146 84.0765 69.5879 84.0928 69.6855C84.0928 69.7995 84.0602 69.8971 83.9951 69.9785C83.93 70.0436 83.8486 70.0762 83.751 70.0762H83.6289C83.0267 70.0762 82.5059 69.8564 82.0664 69.417C81.627 68.9775 81.2933 68.3835 81.0654 67.6348C80.8376 66.9349 80.7236 66.1699 80.7236 65.3398C80.7236 65.0957 80.7318 64.8516 80.748 64.6074C80.8132 63.4681 81.0898 62.3532 81.5781 61.2627C81.985 60.3512 82.5465 59.5212 83.2627 58.7725C83.9951 58.0238 84.8984 57.4215 85.9727 56.9658C87.0632 56.5101 88.349 56.2822 89.8301 56.2822L90.709 56.3066C92.304 56.388 93.8258 56.6647 95.2744 57.1367C96.7393 57.6087 98.0576 58.4144 99.2295 59.5537C100.499 60.8721 101.305 62.3939 101.646 64.1191C101.744 64.6562 101.793 65.2096 101.793 65.7793C101.793 67 101.533 68.2451 101.012 69.5146C100.442 70.8981 99.5143 72.2327 98.2285 73.5186C96.9427 74.8044 95.2663 75.9925 93.1992 77.083C89.9766 78.6943 87.0713 80.029 84.4834 81.0869C84.1742 81.2171 83.873 81.3473 83.5801 81.4775L83.3359 81.5752C80.6829 82.6657 78.4368 83.7318 76.5977 84.7734C74.7585 85.7988 73.3587 87.0846 72.3984 88.6309C72.3496 88.7122 72.3089 88.7936 72.2764 88.875C72.0648 89.2493 71.8776 89.6237 71.7148 89.998C72.3659 89.2819 73.1471 88.5332 74.0586 87.752C74.9701 86.9707 75.9792 86.3034 77.0859 85.75C78.1927 85.1803 79.3564 84.8955 80.5771 84.8955C80.9189 84.8955 81.2689 84.9281 81.627 84.9932C82.75 85.1885 83.7998 85.5872 84.7764 86.1895C85.7692 86.7754 86.7214 87.4264 87.6328 88.1426C88.5768 88.875 89.5127 89.5179 90.4404 90.0713C91.3682 90.6247 92.3284 90.9014 93.3213 90.9014C94.0374 90.9014 94.778 90.6979 95.543 90.291C96.3242 89.8841 97.1462 89.1924 98.0088 88.2158C98.0902 88.1344 98.1797 88.0938 98.2773 88.0938C98.3587 88.0938 98.432 88.1182 98.4971 88.167C98.5784 88.2484 98.6191 88.3379 98.6191 88.4355C98.6191 88.5169 98.5866 88.5983 98.5215 88.6797C97.2031 90.1934 95.9255 91.2513 94.6885 91.8535C93.4515 92.4395 92.2389 92.7324 91.0508 92.7324Z" fill="#458352"/>
</svg>
