<svg width="154" height="172" viewBox="0 0 154 172" fill="none" xmlns="http://www.w3.org/2000/svg">
<path d="M77.25 2.5C37.2375 2.5 4.5 13.6327 4.5 21.5847V26.992V37.4886V141.5H150V37.4886V26.992V21.5847C150 13.9508 117.263 2.5 77.25 2.5Z" fill="#F9FFF1" stroke="#458352" stroke-width="3" stroke-miterlimit="10" stroke-linecap="round" stroke-linejoin="round"/>
<path d="M140 29.4913C140 22.27 111.762 12.5 77.25 12.5C42.7375 12.5 14.5 22.27 14.5 29.4913V131.5H140V29.4913Z" stroke="#458352" stroke-width="3" stroke-miterlimit="10" stroke-linecap="round" stroke-linejoin="round"/>
<path d="M150 141.5H4.5V161H150V141.5Z" fill="#F9FFF1" stroke="#458352" stroke-width="3" stroke-miterlimit="10" stroke-linecap="round" stroke-linejoin="round"/>
<path d="M152 161H2.5V169H152V161Z" fill="#F9FFF1" stroke="#458352" stroke-width="3" stroke-miterlimit="10" stroke-linecap="round" stroke-linejoin="round"/>
<path d="M68.5501 53.8001V88.8501C68.5501 92.0501 69.1501 92.8001 72.9501 92.8001V94.0001H58.7001V92.8001C62.8001 92.8001 63.5001 92.0501 63.5001 88.8501V61.1001C63.5001 57.5501 63.3501 57.0001 58.6501 59.5001L58.0001 58.3001L64.2501 55.0501L67.8501 53.1001L68.5501 53.8001Z" fill="#458352"/>
<path d="M75.1306 90.8501C75.1306 89.6501 76.0806 88.8001 77.3306 88.8001C78.6806 88.8001 79.3806 89.8001 80.1306 90.7501C81.0306 91.9001 81.7806 92.6001 83.7306 92.6001C86.8806 92.6001 90.4306 90.0501 90.4306 83.3501C90.4306 75.9001 85.8306 73.5001 81.1806 73.5001V72.3501C85.9806 70.9501 89.4306 68.1001 89.4306 62.9001C89.4306 59.6501 87.7806 56.8001 83.9306 56.8001C79.9306 56.8001 78.0306 59.4001 77.2306 62.6501H76.0306C76.8806 56.6001 80.5806 53.2001 85.9806 53.2001C90.8806 53.2001 94.6806 56.4501 94.6806 61.9501C94.6806 66.5501 91.5806 70.1501 86.3306 72.2001V72.3501C91.5806 72.9001 96.0306 76.1501 96.0306 82.7001C96.0306 90.2001 90.1306 94.8001 83.0806 94.8001C79.1306 94.8001 75.1306 93.3501 75.1306 90.8501Z" fill="#458352"/>
</svg>
