<svg width="329" height="172" viewBox="0 0 329 172" fill="none" xmlns="http://www.w3.org/2000/svg">
<path d="M164.5 3C77.875 3 7 14.1327 7 22.0847V27.492V37.9886V142H322V37.9886V27.492V22.0847C322 14.4508 251.125 3 164.5 3Z" fill="#F9FFF1" stroke="#458352" stroke-width="3" stroke-miterlimit="10" stroke-linecap="round" stroke-linejoin="round"/>
<path d="M312 29.9913C312 22.77 245.625 13 164.5 13C83.375 13 17 22.77 17 29.9913V132H312V29.9913Z" stroke="#458352" stroke-width="3" stroke-miterlimit="10" stroke-linecap="round" stroke-linejoin="round"/>
<path d="M322 142H7V161H322V142Z" fill="#F9FFF1" stroke="#458352" stroke-width="3" stroke-miterlimit="10" stroke-linecap="round" stroke-linejoin="round"/>
<path d="M326 161H3V169H326V161Z" fill="#F9FFF1" stroke="#458352" stroke-width="3" stroke-miterlimit="10" stroke-linecap="round" stroke-linejoin="round"/>
<path d="M156.4 60.75L154.1 87H146L148.3 60.75H156.4Z" fill="#458352"/>
<path d="M182.378 60.75L180.078 87H171.928L172.478 80.75C170.711 82.4167 168.478 83.25 165.778 83.25C163.545 83.25 161.678 82.65 160.178 81.45C158.711 80.2167 158.045 78.7333 158.178 77L159.628 60.75H167.728L166.528 74.5C166.495 75.2 166.761 75.8 167.328 76.3C167.928 76.7667 168.678 77 169.578 77C170.478 77 171.261 76.7667 171.928 76.3C172.628 75.8 172.995 75.2 173.028 74.5L174.228 60.75H182.378Z" fill="#458352"/>
</svg>
