<svg width="329" height="172" viewBox="0 0 329 172" fill="none" xmlns="http://www.w3.org/2000/svg">
<path d="M164.5 3C77.875 3 7 14.1327 7 22.0847V27.492V37.9886V142H322V37.9886V27.492V22.0847C322 14.4508 251.125 3 164.5 3Z" fill="#F9FFF1" stroke="#458352" stroke-width="3" stroke-miterlimit="10" stroke-linecap="round" stroke-linejoin="round"/>
<path d="M312 29.9913C312 22.77 245.625 13 164.5 13C83.375 13 17 22.77 17 29.9913V132H312V29.9913Z" stroke="#458352" stroke-width="3" stroke-miterlimit="10" stroke-linecap="round" stroke-linejoin="round"/>
<path d="M322 142H7V161H322V142Z" fill="#F9FFF1" stroke="#458352" stroke-width="3" stroke-miterlimit="10" stroke-linecap="round" stroke-linejoin="round"/>
<path d="M326 161H3V169H326V161Z" fill="#F9FFF1" stroke="#458352" stroke-width="3" stroke-miterlimit="10" stroke-linecap="round" stroke-linejoin="round"/>
<path d="M160.197 51.705V87.0072C160.197 90.2302 160.834 90.9856 164.867 90.9856V92.1942H149.743V90.9856C154.094 90.9856 154.837 90.2302 154.837 87.0072V59.0576C154.837 55.482 154.678 54.9281 149.69 57.446L149 56.2374L155.633 52.964L159.454 51L160.197 51.705Z" fill="#458352"/>
<path d="M176.043 93C171.639 93 167.447 91.3381 167.447 88.9209C167.447 87.6619 168.455 86.8058 169.782 86.8058C171.214 86.8058 171.957 87.813 172.753 88.7698C173.655 89.8777 174.77 90.7842 176.574 90.7842C180.076 90.7842 183.897 86.8561 183.897 78.446C183.897 71.0935 181.138 68.0719 177.158 68.0719C175.035 68.0719 173.178 68.9784 171.692 70.5899L169.941 69.3813L174.027 51.9065H189.257L188.143 56.3885H175.672L173.337 67.1151L173.549 67.2662C175.46 65.7554 177.476 65.1007 179.652 65.1007C185.542 65.1007 190 69.9856 190 77.4389C190 87.7626 183.26 93 176.043 93Z" fill="#458352"/>
</svg>
