<svg width="154" height="111" viewBox="0 0 154 111" fill="none" xmlns="http://www.w3.org/2000/svg">
<path d="M77.25 3.25C37.2375 3.25 4.5 9.53719 4.5 14.028V17.0818V23.0097V81.75H150V23.0097V17.0818V14.028C150 9.71682 117.263 3.25 77.25 3.25Z" fill="#F9FFF1" stroke="#458352" stroke-width="3" stroke-miterlimit="10" stroke-linecap="round" stroke-linejoin="round"/>
<path d="M140 21.6029C140 18.0529 111.762 13.25 77.25 13.25C42.7375 13.25 14.5 18.0529 14.5 21.6029V71.75H140V21.6029Z" stroke="#458352" stroke-width="3" stroke-miterlimit="10" stroke-linecap="round" stroke-linejoin="round"/>
<path d="M150 81.75H4.5V101.25H150V81.75Z" fill="#F9FFF1" stroke="#458352" stroke-width="3" stroke-miterlimit="10" stroke-linecap="round" stroke-linejoin="round"/>
<path d="M152 101.25H2.5V109.25H152V101.25Z" fill="#F9FFF1" stroke="#458352" stroke-width="3" stroke-miterlimit="10" stroke-linecap="round" stroke-linejoin="round"/>
<path d="M68.44 25.89V53.93C68.44 56.49 68.92 57.09 71.96 57.09V58.05H60.56V57.09C63.84 57.09 64.4 56.49 64.4 53.93V31.73C64.4 28.89 64.28 28.45 60.52 30.45L60 29.49L65 26.89L67.88 25.33L68.44 25.89Z" fill="#458352"/>
<path d="M85.9444 36.13C91.1844 36.13 93.6644 40.93 93.6644 46.45C93.6644 52.49 90.7044 58.69 84.5444 58.69C78.4644 58.69 74.9044 53.29 74.9044 45.17C74.9044 34.93 80.9044 27.13 91.6244 25.25V26.21C84.9044 27.97 81.6644 33.33 80.3044 38.93C81.5844 37.41 83.5844 36.13 85.9444 36.13ZM84.5444 57.05C87.6244 57.05 89.0644 53.69 89.0644 47.45C89.0644 42.41 88.0244 37.97 84.4644 37.97C82.6244 37.97 80.9844 39.01 79.9044 40.93C79.6244 42.69 79.5044 44.37 79.5044 45.97C79.5044 52.85 81.3044 57.05 84.5444 57.05Z" fill="#458352"/>
</svg>
