<svg width="154" height="231" viewBox="0 0 154 231" fill="none" xmlns="http://www.w3.org/2000/svg">
<path d="M77.25 2.75C37.2375 2.75 4.5 18.8084 4.5 30.2786V38.0784V53.2191V203.25H150V53.2191V38.0784V30.2786C150 19.2672 117.263 2.75 77.25 2.75Z" fill="#F9FFF1" stroke="#458352" stroke-width="3" stroke-miterlimit="10" stroke-linecap="round" stroke-linejoin="round"/>
<path d="M140 38.5225C140 27.5692 111.762 12.75 77.25 12.75C42.7375 12.75 14.5 27.5692 14.5 38.5225V193.25H140V38.5225Z" stroke="#458352" stroke-width="3" stroke-miterlimit="10" stroke-linecap="round" stroke-linejoin="round"/>
<path d="M150 203.25H4.5V220.25H150V203.25Z" fill="#F9FFF1" stroke="#458352" stroke-width="3" stroke-miterlimit="10" stroke-linecap="round" stroke-linejoin="round"/>
<path d="M152 220.25H2.5V228.25H152V220.25Z" fill="#F9FFF1" stroke="#458352" stroke-width="3" stroke-miterlimit="10" stroke-linecap="round" stroke-linejoin="round"/>
<path d="M68.0501 91.05V126.1C68.0501 129.3 68.6501 130.05 72.4501 130.05V131.25H58.2001V130.05C62.3001 130.05 63.0001 129.3 63.0001 126.1V98.35C63.0001 94.8 62.8501 94.25 58.1501 96.75L57.5001 95.55L63.7501 92.3L67.3501 90.35L68.0501 91.05Z" fill="#458352"/>
<path d="M96.4286 91.25L83.2286 132.15L79.2786 131.15L91.1286 95.85V95.7H79.3286C76.2786 95.7 75.1786 96.6 74.2286 101.15L73.0786 100.9L74.2786 95.2L75.0786 91.25H96.4286Z" fill="#458352"/>
</svg>
