<svg width="154" height="172" viewBox="0 0 154 172" fill="none" xmlns="http://www.w3.org/2000/svg">
<path d="M77.25 2.5C37.2375 2.5 4.5 13.6327 4.5 21.5847V26.992V37.4886V141.5H150V37.4886V26.992V21.5847C150 13.9508 117.263 2.5 77.25 2.5Z" fill="#F9FFF1" stroke="#458352" stroke-width="3" stroke-miterlimit="10" stroke-linecap="round" stroke-linejoin="round"/>
<path d="M140 29.4913C140 22.27 111.762 12.5 77.25 12.5C42.7375 12.5 14.5 22.27 14.5 29.4913V131.5H140V29.4913Z" stroke="#458352" stroke-width="3" stroke-miterlimit="10" stroke-linecap="round" stroke-linejoin="round"/>
<path d="M150 141.5H4.5V161H150V141.5Z" fill="#F9FFF1" stroke="#458352" stroke-width="3" stroke-miterlimit="10" stroke-linecap="round" stroke-linejoin="round"/>
<path d="M152 161H2.5V169H152V161Z" fill="#F9FFF1" stroke="#458352" stroke-width="3" stroke-miterlimit="10" stroke-linecap="round" stroke-linejoin="round"/>
<path d="M56.7534 91.8535H52.7788C52.564 91.8535 52.4297 91.7371 52.376 91.5044V91.4238C52.376 91.3701 52.3939 91.3075 52.4297 91.2358C53.0921 90.0184 54.4797 87.5387 56.5923 83.7969C58.7049 80.055 61.0682 75.964 63.6821 71.5239C66.7078 66.4035 69.3665 62.1245 71.6582 58.687C72.9652 56.7355 73.9767 55.1421 74.6929 53.9067C73.6007 54.7303 71.6045 56.4043 68.7041 58.9287C66.1439 61.1309 62.7422 64.2282 58.499 68.2207C58.4095 68.2923 58.32 68.3281 58.2305 68.3281C58.123 68.3281 58.0246 68.2834 57.9351 68.1938C57.8634 68.1222 57.8276 68.0327 57.8276 67.9253C57.8276 67.8179 57.8724 67.7194 57.9619 67.6299C62.223 63.6553 65.6336 60.5579 68.1938 58.3379C72.634 54.5065 75.0241 52.5282 75.3643 52.4028C75.418 52.367 75.4717 52.3491 75.5254 52.3491C75.5612 52.3312 75.5881 52.3223 75.606 52.3223C75.6597 52.2865 75.7223 52.2686 75.7939 52.2686L75.9551 52.2954C76.0267 52.3133 76.0804 52.3581 76.1162 52.4297C76.1699 52.5013 76.1968 52.5729 76.1968 52.6445L76.1699 52.8057C74.3975 57.2816 71.8104 62.9481 68.4087 69.8052C66.0096 74.7108 63.7448 79.2135 61.6143 83.3135C59.5016 87.3955 58.0067 90.1795 57.1294 91.6655C57.022 91.7909 56.8966 91.8535 56.7534 91.8535Z" fill="#458352"/>
<path d="M89.4634 70.3691C90.3228 70.3691 91.2269 69.9663 92.1758 69.1606C93.1426 68.355 94.0109 67.4508 94.7808 66.4482C95.5685 65.4456 96.1325 64.5952 96.4727 63.897C97.6006 61.6948 98.1646 59.5911 98.1646 57.5859C98.1646 56.7624 98.0571 56.0104 97.8423 55.3301C97.3052 53.7725 96.5174 52.9937 95.479 52.9937C94.8166 52.9937 94.1183 53.2533 93.3843 53.7725C92.0415 54.7035 90.7524 56.0552 89.5171 57.8276C89.0158 58.5617 88.6488 59.1615 88.416 59.627C87.306 61.8649 86.751 63.9686 86.751 65.938C86.751 66.7437 86.8674 67.4867 87.1001 68.167C87.6193 69.6351 88.4071 70.3691 89.4634 70.3691ZM81.4336 91.6924C80.5742 91.6924 79.7686 91.5939 79.0166 91.397C77.1188 90.8957 75.6328 89.9289 74.5586 88.4966C73.4844 87.0464 72.9473 85.3455 72.9473 83.394C72.9473 82.4989 73.0636 81.6126 73.2964 80.7354C74.1379 77.6738 75.8029 75.1315 78.2915 73.1084C80.2072 71.5687 82.3288 70.575 84.6562 70.1274C83.9759 69.6978 83.394 69.1696 82.9106 68.543C81.9618 67.2539 81.4873 65.7231 81.4873 63.9507C81.4873 63.1629 81.5768 62.3752 81.7559 61.5874C82.5257 58.866 84.0117 56.6012 86.2139 54.793C87.2523 53.9515 88.425 53.2801 89.7319 52.7788C91.0568 52.2596 92.3996 52 93.7603 52C94.4406 52 95.1209 52.0806 95.8013 52.2417C97.5558 52.7251 98.9255 53.6471 99.9102 55.0078C100.787 56.2611 101.226 57.7202 101.226 59.3853C101.19 60.3162 101.092 61.113 100.931 61.7754C100.197 64.4967 98.7017 66.7616 96.4458 68.5698C94.8524 69.841 93.0978 70.6914 91.1821 71.1211C92.1668 71.694 92.9725 72.4281 93.5991 73.3232C94.6017 74.7376 95.103 76.3937 95.103 78.2915C95.0672 79.2225 94.9508 80.0998 94.7539 80.9233C93.9124 83.9849 92.2474 86.5182 89.7588 88.5234C87.1449 90.6361 84.3698 91.6924 81.4336 91.6924ZM82.1587 90.8599L82.4541 90.833C84.0296 90.2601 85.453 89.3112 86.7241 87.9863C88.0132 86.6436 89.0874 85.1128 89.9468 83.394C90.8062 81.6574 91.3791 79.9207 91.6655 78.1841C91.7729 77.4858 91.8267 76.8055 91.8267 76.1431C91.8267 73.8335 91.1016 72.2311 89.6514 71.3359L88.98 71.3628C88.5145 71.3628 88.0579 71.327 87.6104 71.2554C86.1423 71.8999 84.8174 72.8757 83.6357 74.1826C82.4541 75.4717 81.4694 76.9129 80.6816 78.5063C79.8223 80.243 79.2493 81.9707 78.9629 83.6895C78.8555 84.3519 78.8018 84.9875 78.8018 85.5962C78.8018 86.5272 78.936 87.3866 79.2046 88.1743C79.4731 88.9621 79.8491 89.6066 80.3325 90.1079C80.8159 90.6092 81.4246 90.8599 82.1587 90.8599Z" fill="#458352"/>
</svg>
