<svg width="154" height="80" viewBox="0 0 154 80" fill="none" xmlns="http://www.w3.org/2000/svg">
<path d="M77.25 2.5C37.2375 2.5 4.5 7.18535 4.5 10.532V12.8078V17.2254V61H150V17.2254V12.8078V10.532C150 7.31922 117.263 2.5 77.25 2.5Z" fill="#F9FFF1" stroke="#458352" stroke-width="3" stroke-miterlimit="10" stroke-linecap="round" stroke-linejoin="round"/>
<path d="M140 17.9972C140 15.6609 111.762 12.5 77.25 12.5C42.7375 12.5 14.5 15.6609 14.5 17.9972V51H140V17.9972Z" stroke="#458352" stroke-width="3" stroke-miterlimit="10" stroke-linecap="round" stroke-linejoin="round"/>
<path d="M150 61H4.5V70.5H150V61Z" fill="#F9FFF1" stroke="#458352" stroke-width="3" stroke-miterlimit="10" stroke-linecap="round" stroke-linejoin="round"/>
<path d="M152 70.5H2.5V78.5H152V70.5Z" fill="#F9FFF1" stroke="#458352" stroke-width="3" stroke-miterlimit="10" stroke-linecap="round" stroke-linejoin="round"/>
<path d="M70.5199 19.92V40.95C70.5199 42.87 70.8799 43.32 73.1599 43.32V44.04H64.6099V43.32C67.0699 43.32 67.4899 42.87 67.4899 40.95V24.3C67.4899 22.17 67.3999 21.84 64.5799 23.34L64.1899 22.62L67.9399 20.67L70.0999 19.5L70.5199 19.92Z" fill="#458352"/>
<path d="M82.1482 19.56C86.7082 19.56 89.3782 23.61 89.3782 29.7C89.3782 37.38 84.8782 43.23 76.8382 44.64V43.92C81.8782 42.6 84.3082 38.58 85.3282 34.38C84.3682 35.49 82.8682 36.45 81.0982 36.45C77.1682 36.45 75.3082 32.88 75.3082 28.74C75.3082 24.21 77.5282 19.56 82.1482 19.56ZM85.6282 32.88C85.8382 31.56 85.9282 30.3 85.9282 29.1C85.9282 23.94 84.5782 20.79 82.1482 20.79C79.8382 20.79 78.7582 23.31 78.7582 27.99C78.7582 31.74 79.5382 35.1 82.2082 35.1C83.5882 35.1 84.8182 34.32 85.6282 32.88Z" fill="#458352"/>
</svg>
