<svg width="154" height="231" viewBox="0 0 154 231" fill="none" xmlns="http://www.w3.org/2000/svg">
<path d="M77.25 2.75C37.2375 2.75 4.5 18.8084 4.5 30.2786V38.0784V53.2191V203.25H150V53.2191V38.0784V30.2786C150 19.2672 117.263 2.75 77.25 2.75Z" fill="#F9FFF1" stroke="#458352" stroke-width="3" stroke-miterlimit="10" stroke-linecap="round" stroke-linejoin="round"/>
<path d="M140 38.5225C140 27.5692 111.762 12.75 77.25 12.75C42.7375 12.75 14.5 27.5692 14.5 38.5225V193.25H140V38.5225Z" stroke="#458352" stroke-width="3" stroke-miterlimit="10" stroke-linecap="round" stroke-linejoin="round"/>
<path d="M150 203.25H4.5V220.25H150V203.25Z" fill="#F9FFF1" stroke="#458352" stroke-width="3" stroke-miterlimit="10" stroke-linecap="round" stroke-linejoin="round"/>
<path d="M152 220.25H2.5V228.25H152V220.25Z" fill="#F9FFF1" stroke="#458352" stroke-width="3" stroke-miterlimit="10" stroke-linecap="round" stroke-linejoin="round"/>
<path d="M70 125.8H82.2C85.45 125.8 86.45 124.75 87.85 120.65L89 121.05L87.15 126.5L85.85 130.25H64.5V129.05C73.85 118.9 81.4 110.15 81.4 101.05C81.4 96.8502 79.6 93.8002 75.45 93.8002C70.65 93.8002 68 98.1002 67.75 104.8H66.5C66.5 95.5502 70.95 89.4502 78 89.4502C83.95 89.4502 86.8 93.4502 86.8 98.5502C86.8 108.1 77.5 118.2 70 125.65V125.8Z" fill="#458352"/>
</svg>
