<svg width="154" height="172" viewBox="0 0 154 172" fill="none" xmlns="http://www.w3.org/2000/svg">
<path d="M77.25 2.5C37.2375 2.5 4.5 13.6327 4.5 21.5847V26.992V37.4886V141.5H150V37.4886V26.992V21.5847C150 13.9508 117.263 2.5 77.25 2.5Z" fill="#F9FFF1" stroke="#458352" stroke-width="3" stroke-miterlimit="10" stroke-linecap="round" stroke-linejoin="round"/>
<path d="M140 29.4913C140 22.27 111.762 12.5 77.25 12.5C42.7375 12.5 14.5 22.27 14.5 29.4913V131.5H140V29.4913Z" stroke="#458352" stroke-width="3" stroke-miterlimit="10" stroke-linecap="round" stroke-linejoin="round"/>
<path d="M150 141.5H4.5V161H150V141.5Z" fill="#F9FFF1" stroke="#458352" stroke-width="3" stroke-miterlimit="10" stroke-linecap="round" stroke-linejoin="round"/>
<path d="M152 161H2.5V169H152V161Z" fill="#F9FFF1" stroke="#458352" stroke-width="3" stroke-miterlimit="10" stroke-linecap="round" stroke-linejoin="round"/>
<path d="M56.5 87.35H68.7C71.95 87.35 72.95 86.3 74.35 82.2L75.5 82.6L73.65 88.05L72.35 91.8H51V90.6C60.35 80.45 67.9 71.7 67.9 62.6C67.9 58.4 66.1 55.35 61.95 55.35C57.15 55.35 54.5 59.65 54.25 66.35H53C53 57.1 57.45 51 64.5 51C70.45 51 73.3 55 73.3 60.1C73.3 69.65 64 79.75 56.5 87.2V87.35Z" fill="#458352"/>
<path d="M90.6742 92.55C82.6742 92.55 78.5742 83.2 78.5742 71.65C78.5742 60.25 82.6742 51 90.6742 51C98.6242 51 102.724 60.25 102.724 71.65C102.724 83.2 98.6242 92.55 90.6742 92.55ZM90.6742 90.5C95.2742 90.5 97.0242 82.65 97.0242 71.65C97.0242 60.8 95.2742 53.05 90.6742 53.05C86.0242 53.05 84.3242 60.8 84.3242 71.65C84.3242 82.65 86.0242 90.5 90.6742 90.5Z" fill="#458352"/>
</svg>
