<svg width="154" height="111" viewBox="0 0 154 111" fill="none" xmlns="http://www.w3.org/2000/svg">
<path d="M77.25 3.25C37.2375 3.25 4.5 9.53719 4.5 14.028V17.0818V23.0097V81.75H150V23.0097V17.0818V14.028C150 9.71682 117.263 3.25 77.25 3.25Z" fill="#F9FFF1" stroke="#458352" stroke-width="3" stroke-miterlimit="10" stroke-linecap="round" stroke-linejoin="round"/>
<path d="M140 21.6029C140 18.0529 111.762 13.25 77.25 13.25C42.7375 13.25 14.5 18.0529 14.5 21.6029V71.75H140V21.6029Z" stroke="#458352" stroke-width="3" stroke-miterlimit="10" stroke-linecap="round" stroke-linejoin="round"/>
<path d="M150 81.75H4.5V101.25H150V81.75Z" fill="#F9FFF1" stroke="#458352" stroke-width="3" stroke-miterlimit="10" stroke-linecap="round" stroke-linejoin="round"/>
<path d="M152 101.25H2.5V109.25H152V101.25Z" fill="#F9FFF1" stroke="#458352" stroke-width="3" stroke-miterlimit="10" stroke-linecap="round" stroke-linejoin="round"/>
<path d="M76.4121 38.4167C76.1825 40.7938 74.9032 42.8408 72.5743 44.5576C70.2455 46.2414 67.5394 47.0833 64.456 47.0833C63.5704 47.0833 62.7832 47.331 62.0944 47.8262C61.4383 48.2884 61.0775 48.8662 61.0119 49.5595H75.428L74.8868 55.75H52.5L53.0412 49.5595C53.238 47.1824 54.5009 45.1519 56.8298 43.4681C59.1914 41.7513 61.9139 40.8929 64.9973 40.8929C65.8829 40.8929 66.6537 40.6617 67.3097 40.1995C67.9658 39.7043 68.3266 39.11 68.3922 38.4167C68.4578 37.7233 68.1954 37.1456 67.605 36.6833C67.0145 36.1881 66.2765 35.9405 65.3909 35.9405C64.538 35.9405 63.7672 36.1881 63.0784 36.6833C62.4224 37.1456 62.0616 37.7233 61.9959 38.4167H54.0253C54.2221 36.0395 55.4849 34.009 57.8138 32.3252C60.1427 30.6084 62.8488 29.75 65.9321 29.75C69.0482 29.75 71.6231 30.6084 73.6568 32.3252C75.6904 34.009 76.6089 36.0395 76.4121 38.4167Z" fill="#458352"/>
<path d="M101.974 38.4167C101.744 40.7938 100.465 42.8408 98.1362 44.5576C95.8073 46.2414 93.1012 47.0833 90.0179 47.0833C89.1323 47.0833 88.3451 47.331 87.6562 47.8262C87.0002 48.2884 86.6394 48.8662 86.5738 49.5595H100.99L100.449 55.75H78.0619L78.6031 49.5595C78.7999 47.1824 80.0627 45.1519 82.3916 43.4681C84.7533 41.7513 87.4758 40.8929 90.5591 40.8929C91.4448 40.8929 92.2156 40.6617 92.8716 40.1995C93.5276 39.7043 93.8885 39.11 93.9541 38.4167C94.0197 37.7233 93.7573 37.1456 93.1668 36.6833C92.5764 36.1881 91.8384 35.9405 90.9527 35.9405C90.0999 35.9405 89.3291 36.1881 88.6403 36.6833C87.9842 37.1456 87.6234 37.7233 87.5578 38.4167H79.5871C79.7839 36.0395 81.0468 34.009 83.3757 32.3252C85.7046 30.6084 88.4107 29.75 91.494 29.75C94.6101 29.75 97.185 30.6084 99.2187 32.3252C101.252 34.009 102.171 36.0395 101.974 38.4167Z" fill="#458352"/>
</svg>
