<svg width="329" height="116" viewBox="0 0 329 116" fill="none" xmlns="http://www.w3.org/2000/svg">
<path d="M164.5 5C77.875 5 7 11.3272 7 15.8467V18.9199V24.8856V84H322V24.8856V18.9199V15.8467C322 11.508 251.125 5 164.5 5Z" fill="#F9FFF1" stroke="#458352" stroke-width="3" stroke-miterlimit="10" stroke-linecap="round" stroke-linejoin="round"/>
<path d="M312 23.4242C312 19.8439 245.625 15 164.5 15C83.375 15 17 19.8439 17 23.4242V74H312V23.4242Z" stroke="#458352" stroke-width="3" stroke-miterlimit="10" stroke-linecap="round" stroke-linejoin="round"/>
<path d="M322 84H7V103H322V84Z" fill="#F9FFF1" stroke="#458352" stroke-width="3" stroke-miterlimit="10" stroke-linecap="round" stroke-linejoin="round"/>
<path d="M326 103H3V111H326V103Z" fill="#F9FFF1" stroke="#458352" stroke-width="3" stroke-miterlimit="10" stroke-linecap="round" stroke-linejoin="round"/>
<path d="M150.4 55.9394H160.16C162.76 55.9394 163.56 55.0994 164.68 51.8194L165.6 52.1394L164.12 56.4994L163.08 59.4994H146V58.5394C153.48 50.4194 159.52 43.4194 159.52 36.1394C159.52 32.7794 158.08 30.3394 154.76 30.3394C150.92 30.3394 148.8 33.7794 148.6 39.1394H147.6C147.6 31.7394 151.16 26.8594 156.8 26.8594C161.56 26.8594 163.84 30.0594 163.84 34.1394C163.84 41.7794 156.4 49.8594 150.4 55.8194V55.9394Z" fill="#458352"/>
<path d="M166.859 56.9794C166.859 56.0194 167.619 55.3394 168.619 55.3394C169.699 55.3394 170.259 56.1394 170.859 56.8994C171.579 57.8194 172.179 58.3794 173.739 58.3794C176.259 58.3794 179.099 56.3394 179.099 50.9794C179.099 45.0194 175.419 43.0994 171.699 43.0994V42.1794C175.539 41.0594 178.299 38.7794 178.299 34.6194C178.299 32.0194 176.979 29.7394 173.899 29.7394C170.699 29.7394 169.179 31.8194 168.539 34.4194H167.579C168.259 29.5794 171.219 26.8594 175.539 26.8594C179.459 26.8594 182.499 29.4594 182.499 33.8594C182.499 37.5394 180.019 40.4194 175.819 42.0594V42.1794C180.019 42.6194 183.579 45.2194 183.579 50.4594C183.579 56.4594 178.859 60.1394 173.219 60.1394C170.059 60.1394 166.859 58.9794 166.859 56.9794Z" fill="#458352"/>
</svg>
