<svg width="154" height="172" viewBox="0 0 154 172" fill="none" xmlns="http://www.w3.org/2000/svg">
<path d="M77.25 2.5C37.2375 2.5 4.5 13.6327 4.5 21.5847V26.992V37.4886V141.5H150V37.4886V26.992V21.5847C150 13.9508 117.263 2.5 77.25 2.5Z" fill="#F9FFF1" stroke="#458352" stroke-width="3" stroke-miterlimit="10" stroke-linecap="round" stroke-linejoin="round"/>
<path d="M140 29.4913C140 22.27 111.762 12.5 77.25 12.5C42.7375 12.5 14.5 22.27 14.5 29.4913V131.5H140V29.4913Z" stroke="#458352" stroke-width="3" stroke-miterlimit="10" stroke-linecap="round" stroke-linejoin="round"/>
<path d="M150 141.5H4.5V161H150V141.5Z" fill="#F9FFF1" stroke="#458352" stroke-width="3" stroke-miterlimit="10" stroke-linecap="round" stroke-linejoin="round"/>
<path d="M152 161H2.5V169H152V161Z" fill="#F9FFF1" stroke="#458352" stroke-width="3" stroke-miterlimit="10" stroke-linecap="round" stroke-linejoin="round"/>
<path d="M76.23 72.125C75.9733 74.765 74.5433 77.0383 71.94 78.945C69.3367 80.815 66.3117 81.75 62.865 81.75C61.875 81.75 60.995 82.025 60.225 82.575C59.4917 83.0883 59.0883 83.73 59.015 84.5H75.13L74.525 91.375H49.5L50.105 84.5C50.325 81.86 51.7367 79.605 54.34 77.735C56.98 75.8283 60.0233 74.875 63.47 74.875C64.46 74.875 65.3217 74.6183 66.055 74.105C66.7883 73.555 67.1917 72.895 67.265 72.125C67.3383 71.355 67.045 70.7133 66.385 70.2C65.725 69.65 64.9 69.375 63.91 69.375C62.9567 69.375 62.095 69.65 61.325 70.2C60.5917 70.7133 60.1883 71.355 60.115 72.125H51.205C51.425 69.485 52.8367 67.23 55.44 65.36C58.0433 63.4533 61.0683 62.5 64.515 62.5C67.9983 62.5 70.8767 63.4533 73.15 65.36C75.4233 67.23 76.45 69.485 76.23 72.125Z" fill="#458352"/>
<path d="M105.629 62.5L103.099 91.375H94.1342L94.7392 84.5C92.7959 86.3333 90.3392 87.25 87.3692 87.25C84.9126 87.25 82.8592 86.59 81.2092 85.27C79.5959 83.9133 78.8626 82.2817 79.0092 80.375L80.6042 62.5H89.5142L88.1942 77.625C88.1576 78.395 88.4509 79.055 89.0742 79.605C89.7342 80.1183 90.5592 80.375 91.5492 80.375C92.5392 80.375 93.4009 80.1183 94.1342 79.605C94.9042 79.055 95.3076 78.395 95.3442 77.625L96.6642 62.5H105.629Z" fill="#458352"/>
</svg>
