<svg width="154" height="172" viewBox="0 0 154 172" fill="none" xmlns="http://www.w3.org/2000/svg">
<path d="M77.25 2.5C37.2375 2.5 4.5 13.6327 4.5 21.5847V26.992V37.4886V141.5H150V37.4886V26.992V21.5847C150 13.9508 117.263 2.5 77.25 2.5Z" fill="#F9FFF1" stroke="#458352" stroke-width="3" stroke-miterlimit="10" stroke-linecap="round" stroke-linejoin="round"/>
<path d="M140 29.4913C140 22.27 111.762 12.5 77.25 12.5C42.7375 12.5 14.5 22.27 14.5 29.4913V131.5H140V29.4913Z" stroke="#458352" stroke-width="3" stroke-miterlimit="10" stroke-linecap="round" stroke-linejoin="round"/>
<path d="M150 141.5H4.5V161H150V141.5Z" fill="#F9FFF1" stroke="#458352" stroke-width="3" stroke-miterlimit="10" stroke-linecap="round" stroke-linejoin="round"/>
<path d="M152 161H2.5V169H152V161Z" fill="#F9FFF1" stroke="#458352" stroke-width="3" stroke-miterlimit="10" stroke-linecap="round" stroke-linejoin="round"/>
<path d="M100.44 57.1213C100.48 58.0813 100.26 59.1013 99.78 60.1813C99.3 61.2613 98.6 62.2013 97.68 63.0013C96.52 64.0413 95.34 64.9013 94.14 65.5813C92.98 66.2613 91.88 66.8013 90.84 67.2013C89.8 67.6013 88.88 67.9013 88.08 68.1013C87.32 68.2613 86.8 68.3613 86.52 68.4013C86.72 68.6013 86.92 68.9213 87.12 69.3613C87.32 69.8013 87.42 70.3413 87.42 70.9813C87.42 71.6213 87.36 72.3213 87.24 73.0813C87.16 73.8413 86.9 74.6813 86.46 75.6013C86.06 76.4813 85.46 77.4213 84.66 78.4213C83.86 79.4613 82.78 80.5413 81.42 81.6613C79.9 82.9413 78.22 84.1213 76.38 85.2013C74.54 86.3213 72.62 87.2613 70.62 88.0213C68.62 88.8213 66.6 89.4013 64.56 89.7613C62.48 90.1613 60.48 90.2613 58.56 90.0613C57.2 89.9413 56.1 89.5813 55.26 88.9813C54.42 88.3813 54 87.6213 54 86.7013C54 86.0213 54.12 85.4413 54.36 84.9613C54.6 84.4813 54.86 84.1013 55.14 83.8213C55.46 83.5013 55.7 83.4213 55.86 83.5813C55.98 83.6613 56.02 83.7413 55.98 83.8213C55.9 83.9013 55.82 84.0413 55.74 84.2413C55.54 84.5213 55.36 84.8213 55.2 85.1413C55.04 85.5013 54.96 85.9813 54.96 86.5813C55 87.3813 55.42 87.9813 56.22 88.3813C57.02 88.8213 57.9 89.0813 58.86 89.1613C60.42 89.2413 62.06 89.0213 63.78 88.5013C65.5 88.0213 67.22 87.3613 68.94 86.5213C70.62 85.6813 72.26 84.7213 73.86 83.6413C75.46 82.5613 76.96 81.4413 78.36 80.2813C79.96 78.9613 81.24 77.7613 82.2 76.6813C83.16 75.6413 83.88 74.7013 84.36 73.8613C84.88 73.0213 85.22 72.2813 85.38 71.6413C85.58 70.9613 85.72 70.3813 85.8 69.9013C85.84 69.5813 85.84 69.3213 85.8 69.1213C85.8 68.9213 85.8 68.7413 85.8 68.5813C85.36 68.7413 84.84 68.8813 84.24 69.0013C83.68 69.0813 83.28 69.1413 83.04 69.1813C82.76 69.2213 82.46 69.2013 82.14 69.1213C81.82 69.0013 81.76 68.7813 81.96 68.4613C82.08 68.2613 82.28 68.1013 82.56 67.9813C82.88 67.8613 83.18 67.8013 83.46 67.8013C83.9 67.7213 84.34 67.7013 84.78 67.7413C85.22 67.7413 85.64 67.7813 86.04 67.8613C86.68 67.6613 87.9 67.0413 89.7 66.0013C91.54 64.9213 93.56 63.3213 95.76 61.2013C96.8 60.2013 97.52 59.3013 97.92 58.5013C98.36 57.7013 98.62 57.0213 98.7 56.4613C98.78 55.9013 98.62 55.5013 98.22 55.2613C97.86 55.0213 97.4 54.9013 96.84 54.9013C96.24 54.9013 95.64 55.0413 95.04 55.3213C94.48 55.6013 93.86 55.9613 93.18 56.4013C92.7 56.7213 92.22 57.1413 91.74 57.6613C91.26 58.1413 90.86 58.5813 90.54 58.9813C89.86 59.8213 89.22 60.5413 88.62 61.1413C88.02 61.7013 87.56 61.8813 87.24 61.6813C87.04 61.5613 86.98 61.3213 87.06 60.9613C87.18 60.5613 87.38 60.1813 87.66 59.8213C88.1 59.2213 88.6 58.6613 89.16 58.1413C89.76 57.6213 90.36 57.1413 90.96 56.7013C93.48 54.8613 95.6 53.9613 97.32 54.0013C98.36 54.0013 99.14 54.3013 99.66 54.9013C100.18 55.4613 100.44 56.2013 100.44 57.1213Z" fill="#458352"/>
</svg>
