<svg width="154" height="172" viewBox="0 0 154 172" fill="none" xmlns="http://www.w3.org/2000/svg">
<path d="M77.25 2.5C37.2375 2.5 4.5 13.6327 4.5 21.5847V26.992V37.4886V141.5H150V37.4886V26.992V21.5847C150 13.9508 117.263 2.5 77.25 2.5Z" fill="#F9FFF1" stroke="#458352" stroke-width="3" stroke-miterlimit="10" stroke-linecap="round" stroke-linejoin="round"/>
<path d="M140 29.4913C140 22.27 111.762 12.5 77.25 12.5C42.7375 12.5 14.5 22.27 14.5 29.4913V131.5H140V29.4913Z" stroke="#458352" stroke-width="3" stroke-miterlimit="10" stroke-linecap="round" stroke-linejoin="round"/>
<path d="M150 141.5H4.5V161H150V141.5Z" fill="#F9FFF1" stroke="#458352" stroke-width="3" stroke-miterlimit="10" stroke-linecap="round" stroke-linejoin="round"/>
<path d="M152 161H2.5V169H152V161Z" fill="#F9FFF1" stroke="#458352" stroke-width="3" stroke-miterlimit="10" stroke-linecap="round" stroke-linejoin="round"/>
<path d="M98.9 57.4799C99.3 57.3999 99.56 57.3999 99.68 57.4799C99.8 57.5599 99.8 57.6999 99.68 57.8999C99.6 58.0599 99.44 58.2599 99.2 58.4999C98.96 58.7399 98.72 58.9599 98.48 59.1599C98.12 59.4799 97.72 59.7799 97.28 60.0599C96.84 60.2999 96.42 60.3999 96.02 60.3599C95.5 60.3199 95 60.2999 94.52 60.2999C94.08 60.2599 93.6 60.2399 93.08 60.2399C92.76 60.2399 92.24 60.2599 91.52 60.2999C90.84 60.3399 90.3 60.3999 89.9 60.4799C89.42 60.7999 88.8 61.2799 88.04 61.9199C87.32 62.5199 86.56 63.1799 85.76 63.8999C85 64.5799 84.24 65.2599 83.48 65.9399C82.76 66.6199 82.18 67.1799 81.74 67.6199C81.66 67.6999 81.52 67.8399 81.32 68.0399C81.12 68.1999 80.92 68.3399 80.72 68.4599C81.16 68.6199 81.54 68.8199 81.86 69.0599C82.1 69.2599 82.34 69.4599 82.58 69.6599C82.86 69.8599 83.12 70.1799 83.36 70.6199C83.72 71.2199 83.96 71.9999 84.08 72.9599C84.24 73.9199 84.2 74.9799 83.96 76.1399C83.72 77.2999 83.24 78.5399 82.52 79.8599C81.84 81.2199 80.84 82.5599 79.52 83.8799C78 85.3599 76.3 86.6999 74.42 87.8999C72.54 89.1399 70.6 90.1599 68.6 90.9599C66.56 91.7999 64.54 92.4199 62.54 92.8199C60.5 93.2199 58.58 93.3399 56.78 93.1799C55.62 93.0999 54.56 92.8199 53.6 92.3399C52.64 91.8999 52.08 91.0599 51.92 89.8199C51.84 89.0199 51.96 88.3599 52.28 87.8399C52.6 87.3199 52.88 86.9599 53.12 86.7599C53.44 86.5199 53.68 86.4799 53.84 86.6399C53.92 86.7199 53.8 86.9799 53.48 87.4199C53 88.1399 52.82 88.8999 52.94 89.6999C53.1 90.6199 53.6 91.2599 54.44 91.6199C55.24 91.9799 56.08 92.1999 56.96 92.2799C58.64 92.3599 60.4 92.0999 62.24 91.4999C64.08 90.8999 65.9 90.0999 67.7 89.0999C69.5 88.0999 71.22 86.9599 72.86 85.6799C74.46 84.4399 75.84 83.1999 77 81.9599C78.2 80.7199 79.14 79.5799 79.82 78.5399C80.54 77.4999 81.08 76.5599 81.44 75.7199C81.8 74.8799 82 74.1399 82.04 73.4999C82.12 72.8599 82.12 72.2999 82.04 71.8199C81.92 71.1399 81.6 70.5599 81.08 70.0799C80.56 69.5599 80.12 69.2199 79.76 69.0599C79.32 69.3799 78.84 69.5999 78.32 69.7199C77.84 69.8399 77.56 69.7399 77.48 69.4199C77.44 69.0999 77.66 68.8399 78.14 68.6399C78.66 68.3999 79.14 68.2599 79.58 68.2199C80.22 67.8199 80.98 67.1999 81.86 66.3599C82.78 65.4799 83.76 64.5399 84.8 63.5399C85.84 62.4999 86.92 61.4799 88.04 60.4799C89.16 59.4399 90.3 58.5199 91.46 57.7199C91.62 57.7599 91.88 57.7799 92.24 57.7799C92.6 57.7799 92.96 57.7799 93.32 57.7799C93.72 57.7799 94.08 57.7799 94.4 57.7799C94.72 57.7399 94.94 57.7199 95.06 57.7199C95.94 57.7199 96.7 57.6999 97.34 57.6599C97.98 57.6199 98.5 57.5599 98.9 57.4799Z" fill="#458352"/>
</svg>
