<svg width="154" height="80" viewBox="0 0 154 80" fill="none" xmlns="http://www.w3.org/2000/svg">
<path d="M77.25 2.5C37.2375 2.5 4.5 7.18535 4.5 10.532V12.8078V17.2254V61H150V17.2254V12.8078V10.532C150 7.31922 117.263 2.5 77.25 2.5Z" fill="#F9FFF1" stroke="#458352" stroke-width="3" stroke-miterlimit="10" stroke-linecap="round" stroke-linejoin="round"/>
<path d="M140 17.9972C140 15.6609 111.762 12.5 77.25 12.5C42.7375 12.5 14.5 15.6609 14.5 17.9972V51H140V17.9972Z" stroke="#458352" stroke-width="3" stroke-miterlimit="10" stroke-linecap="round" stroke-linejoin="round"/>
<path d="M150 61H4.5V70.5H150V61Z" fill="#F9FFF1" stroke="#458352" stroke-width="3" stroke-miterlimit="10" stroke-linecap="round" stroke-linejoin="round"/>
<path d="M152 70.5H2.5V78.5H152V70.5Z" fill="#F9FFF1" stroke="#458352" stroke-width="3" stroke-miterlimit="10" stroke-linecap="round" stroke-linejoin="round"/>
<path d="M78.2801 26.5599C82.2101 26.5599 84.0701 30.1599 84.0701 34.2999C84.0701 38.8299 81.8501 43.4799 77.2301 43.4799C72.6701 43.4799 70.0001 39.4299 70.0001 33.3399C70.0001 25.6599 74.5001 19.8099 82.5401 18.3999V19.1199C77.5001 20.4399 75.0701 24.4599 74.0501 28.6599C75.0101 27.5199 76.5101 26.5599 78.2801 26.5599ZM77.2301 42.2499C79.5401 42.2499 80.6201 39.7299 80.6201 35.0499C80.6201 31.2699 79.8401 27.9399 77.1701 27.9399C75.7901 27.9399 74.5601 28.7199 73.7501 30.1599C73.5401 31.4799 73.4501 32.7399 73.4501 33.9399C73.4501 39.0999 74.8001 42.2499 77.2301 42.2499Z" fill="#458352"/>
</svg>
