<svg width="154" height="111" viewBox="0 0 154 111" fill="none" xmlns="http://www.w3.org/2000/svg">
<path d="M77.25 3.25C37.2375 3.25 4.5 9.53719 4.5 14.028V17.0818V23.0097V81.75H150V23.0097V17.0818V14.028C150 9.71682 117.263 3.25 77.25 3.25Z" fill="#F9FFF1" stroke="#458352" stroke-width="3" stroke-miterlimit="10" stroke-linecap="round" stroke-linejoin="round"/>
<path d="M140 21.6029C140 18.0529 111.762 13.25 77.25 13.25C42.7375 13.25 14.5 18.0529 14.5 21.6029V71.75H140V21.6029Z" stroke="#458352" stroke-width="3" stroke-miterlimit="10" stroke-linecap="round" stroke-linejoin="round"/>
<path d="M150 81.75H4.5V101.25H150V81.75Z" fill="#F9FFF1" stroke="#458352" stroke-width="3" stroke-miterlimit="10" stroke-linecap="round" stroke-linejoin="round"/>
<path d="M152 101.25H2.5V109.25H152V101.25Z" fill="#F9FFF1" stroke="#458352" stroke-width="3" stroke-miterlimit="10" stroke-linecap="round" stroke-linejoin="round"/>
<path d="M84.01 31.25L76.09 55.79L73.72 55.19L80.83 34.01V33.92H73.75C71.92 33.92 71.26 34.46 70.69 37.19L70 37.04L70.72 33.62L71.2 31.25H84.01Z" fill="#458352"/>
</svg>
