<svg width="154" height="80" viewBox="0 0 154 80" fill="none" xmlns="http://www.w3.org/2000/svg">
<path d="M77.25 2.5C37.2375 2.5 4.5 7.18535 4.5 10.532V12.8078V17.2254V61H150V17.2254V12.8078V10.532C150 7.31922 117.263 2.5 77.25 2.5Z" fill="#F9FFF1" stroke="#458352" stroke-width="3" stroke-miterlimit="10" stroke-linecap="round" stroke-linejoin="round"/>
<path d="M97.0933 11.9601C96.7333 14.4801 95.8533 16.6601 94.4533 18.5001C93.0533 20.3001 91.3933 21.9601 89.4733 23.4801C88.3933 24.3201 87.1733 25.1601 85.8133 26.0001C84.4933 26.8001 83.1333 27.5801 81.7333 28.3401C80.3333 29.0601 78.9533 29.7601 77.5933 30.4401C76.2733 31.0801 75.0733 31.6601 73.9933 32.1801C73.3533 34.6201 72.5133 36.9401 71.4733 39.1401C70.4333 41.3001 69.0533 43.0801 67.3333 44.4801C65.8933 45.7201 64.5333 46.5401 63.2533 46.9401C61.9733 47.3001 60.8133 47.4801 59.7733 47.4801C59.1333 47.4801 58.4933 47.2801 57.8533 46.8801C57.2133 46.4401 56.9333 45.6401 57.0133 44.4801C57.1333 43.3601 57.6133 42.2601 58.4533 41.1801C59.2533 40.1001 60.2933 39.0601 61.5733 38.0601C62.8933 37.0201 64.3333 36.0401 65.8933 35.1201C67.4933 34.1601 69.1133 33.2601 70.7533 32.4201C71.2733 30.7801 72.0133 29.0401 72.9733 27.2001C73.9333 25.3201 75.2333 23.6801 76.8733 22.2801C77.9933 21.4401 79.0733 20.8601 80.1133 20.5401C81.1533 20.2201 82.1733 20.0801 83.1733 20.1201C83.7333 20.1201 84.3333 20.2201 84.9733 20.4201C85.6533 20.6201 86.1933 20.9401 86.5933 21.3801C86.9533 21.7801 86.9733 22.1001 86.6533 22.3401C86.4533 22.5001 86.2733 22.5401 86.1133 22.4601C85.9533 22.3801 85.8333 22.3001 85.7533 22.2201C85.4333 21.9001 85.1133 21.6001 84.7933 21.3201C84.4733 21.0001 83.9133 20.8401 83.1133 20.8401C81.1133 20.8401 79.3533 21.7601 77.8333 23.6001C76.3133 25.4401 75.1333 27.8801 74.2933 30.9201C74.6933 30.7601 75.4333 30.4201 76.5133 29.9001C77.5933 29.3401 78.7933 28.6801 80.1133 27.9201C81.4733 27.1201 82.8733 26.2601 84.3133 25.3401C85.7533 24.4201 87.0733 23.5001 88.2733 22.5801C89.1133 21.9401 89.9533 21.2201 90.7933 20.4201C91.6733 19.6201 92.4733 18.7601 93.1933 17.8401C93.9133 16.9201 94.5333 15.9601 95.0533 14.9601C95.5733 13.9601 95.9133 12.9401 96.0733 11.9001C96.1933 11.2201 96.2133 10.5401 96.1333 9.86012C96.0533 9.14012 95.8733 8.52012 95.5933 8.00012C95.3133 7.44012 94.9333 7.00012 94.4533 6.68011C94.0133 6.32011 93.4533 6.14011 92.7733 6.14011C91.9733 6.14011 91.2533 6.38012 90.6133 6.86012C90.4933 6.94012 90.3733 7.02012 90.2533 7.10012C90.1733 7.18012 90.0933 7.20012 90.0133 7.16012C89.8933 7.08012 89.8533 6.96012 89.8933 6.80012C89.9333 6.64012 89.9933 6.52012 90.0733 6.44011C90.3933 6.04011 90.8133 5.72012 91.3333 5.48012C91.8933 5.24012 92.4733 5.12012 93.0733 5.12012C93.9133 5.12012 94.6133 5.32012 95.1733 5.72012C95.7333 6.12012 96.1733 6.66012 96.4933 7.34012C96.8133 7.98012 97.0133 8.70012 97.0933 9.50012C97.2133 10.3001 97.2133 11.1201 97.0933 11.9601ZM70.3933 33.7401C69.2333 34.3001 67.9533 35.0001 66.5533 35.8401C65.1533 36.6801 63.8533 37.5801 62.6533 38.5401C61.4533 39.5001 60.4333 40.5001 59.5933 41.5401C58.7133 42.5401 58.2333 43.4801 58.1533 44.3601C58.0333 45.1601 58.1533 45.7001 58.5133 45.9801C58.8733 46.2601 59.3333 46.4001 59.8933 46.4001C60.9733 46.4001 62.0333 46.0001 63.0733 45.2001C64.1533 44.4001 65.1733 43.3801 66.1333 42.1401C67.0933 40.9001 67.9333 39.5401 68.6533 38.0601C69.4133 36.5401 69.9933 35.1001 70.3933 33.7401Z" fill="#458352"/>
<path d="M140 17.9972C140 15.6609 111.762 12.5 77.25 12.5C42.7375 12.5 14.5 15.6609 14.5 17.9972V51H140V17.9972Z" stroke="#458352" stroke-width="3" stroke-miterlimit="10" stroke-linecap="round" stroke-linejoin="round"/>
<path d="M150 61H4.5V70.5H150V61Z" fill="#F9FFF1" stroke="#458352" stroke-width="3" stroke-miterlimit="10" stroke-linecap="round" stroke-linejoin="round"/>
<path d="M152 70.5H2.5V78.5H152V70.5Z" fill="#F9FFF1" stroke="#458352" stroke-width="3" stroke-miterlimit="10" stroke-linecap="round" stroke-linejoin="round"/>
</svg>
