<svg width="154" height="172" viewBox="0 0 154 172" fill="none" xmlns="http://www.w3.org/2000/svg">
<path d="M77.25 2.5C37.2375 2.5 4.5 13.6327 4.5 21.5847V26.992V37.4886V141.5H150V37.4886V26.992V21.5847C150 13.9508 117.263 2.5 77.25 2.5Z" fill="#F9FFF1" stroke="#458352" stroke-width="3" stroke-miterlimit="10" stroke-linecap="round" stroke-linejoin="round"/>
<path d="M140 29.4913C140 22.27 111.762 12.5 77.25 12.5C42.7375 12.5 14.5 22.27 14.5 29.4913V131.5H140V29.4913Z" stroke="#458352" stroke-width="3" stroke-miterlimit="10" stroke-linecap="round" stroke-linejoin="round"/>
<path d="M150 141.5H4.5V161H150V141.5Z" fill="#F9FFF1" stroke="#458352" stroke-width="3" stroke-miterlimit="10" stroke-linecap="round" stroke-linejoin="round"/>
<path d="M152 161H2.5V169H152V161Z" fill="#F9FFF1" stroke="#458352" stroke-width="3" stroke-miterlimit="10" stroke-linecap="round" stroke-linejoin="round"/>
<path d="M76.8798 61.5C82.9598 61.5 86.5198 66.9 86.5198 75.02C86.5198 85.26 80.5198 93.06 69.7998 94.94V93.98C76.5198 92.22 79.7598 86.86 81.1198 81.26C79.8398 82.74 77.8398 84.02 75.4798 84.02C70.2398 84.02 67.7598 79.26 67.7598 73.74C67.7598 67.7 70.7198 61.5 76.8798 61.5ZM81.5198 79.26C81.7998 77.5 81.9198 75.82 81.9198 74.22C81.9198 67.34 80.1198 63.14 76.8798 63.14C73.7998 63.14 72.3598 66.5 72.3598 72.74C72.3598 77.74 73.3998 82.22 76.9598 82.22C78.7998 82.22 80.4398 81.18 81.5198 79.26Z" fill="#458352"/>
</svg>
